<?xml version="1.0" encoding="UTF-8" standalone="no"?>
<!DOCTYPE svg PUBLIC "-//W3C//DTD SVG 1.1//EN" "http://www.w3.org/Graphics/SVG/1.1/DTD/svg11.dtd">
<svg xmlns="http://www.w3.org/2000/svg" xmlns:xlink="http://www.w3.org/1999/xlink" version="1.1" width="921.5997pt" height="921.5997pt" viewBox="0 0 921.5997 921.5997">
<g enable-background="new">
<g id="Layer-1" data-name="Layer 1">
<path transform="matrix(1,0,0,-1,0,921.5997)" d="M 831.8299 659.291 L 799.609 691.5118 C 755.2236 647.1264 683.2202 647.1264 638.7253 691.5118 C 594.3399 735.8973 594.3399 807.9007 638.7253 852.3955 L 606.5045 884.6164 C 586.8873 904.2335 555.105 904.2335 535.4878 884.6164 L 464.9091 814.0377 C 466.6626 813.1609 468.3064 812.0648 469.8408 810.5306 L 480.1425 800.2287 C 487.2662 793.1049 487.2662 781.488 480.1425 774.3643 C 476.526 770.8572 471.9229 768.994 467.2106 768.994 C 462.498 768.994 457.8948 770.7475 454.2783 774.3643 L 443.9764 784.6662 C 442.5517 786.0912 441.3461 787.7347 440.4694 789.4885 L 42.425 391.3342 C 22.8078 371.717 22.8078 339.9344 42.425 320.3172 L 74.6459 288.0964 C 119.0313 332.4818 191.0347 332.4818 235.5296 288.0964 C 279.915 243.7109 279.915 171.7075 235.5296 127.2129 L 267.7504 94.9921 C 287.3673 75.3749 319.1499 75.3749 338.7671 94.9921 L 736.9217 493.1464 C 735.1682 494.0235 733.5241 495.1193 731.99 496.6534 L 721.688 506.9554 C 714.5646 514.0791 714.5646 525.6961 721.688 532.8198 C 725.3045 536.4363 729.9077 538.1901 734.6203 538.1901 C 739.3329 538.1901 743.9357 536.4366 747.5525 532.8198 L 757.8541 522.5179 C 759.2791 521.0929 760.4844 519.4494 761.3614 517.5862 L 831.9399 588.1649 C 851.4471 607.782 851.4471 639.6738 831.8299 659.291 Z M 498.1161 756.3912 C 501.7326 760.0076 506.3357 761.7614 511.0483 761.7614 C 515.7609 761.7614 520.3638 760.0082 523.9806 756.3912 L 534.2822 746.0892 C 541.406 738.9658 541.406 727.3488 534.2822 720.2251 C 530.7752 716.718 526.0626 714.8548 521.3503 714.8548 C 516.6377 714.8548 512.0345 716.6081 508.4181 720.2251 L 498.1161 730.527 C 490.9929 737.6511 490.9929 749.2677 498.1161 756.3912 Z M 555.8723 473.3101 L 470.389 434.8426 C 468.6358 434.0755 467.43 432.2123 467.43 430.2394 L 468.307 336.5365 C 468.307 331.9336 462.7176 329.8513 459.7583 333.1392 L 396.7421 402.6223 C 395.4268 404.0473 393.3448 404.5952 391.4816 403.9373 L 302.601 374.1276 C 298.3266 372.7029 294.4911 377.3061 296.7925 381.2513 L 343.37 462.6794 C 344.3562 464.3235 344.2467 466.5149 343.0409 468.0496 L 287.1479 543.3409 C 284.4079 546.9574 287.6958 551.9988 292.0796 551.1217 L 383.9193 532.0522 C 385.8922 531.614 387.8646 532.381 388.9607 534.0251 L 443.319 610.4123 C 445.9493 614.1385 451.7578 612.6043 452.306 608.1109 L 462.498 514.8468 C 462.7171 512.8739 464.0323 511.23 465.8953 510.6821 L 555.3241 482.5165 C 559.7079 481.2012 560.037 475.1734 555.8723 473.3101 Z M 589.7367 664.7712 C 586.2297 661.1545 581.5171 659.4007 576.8048 659.4007 C 572.0922 659.4007 567.489 661.1542 563.8725 664.7712 L 553.5706 675.0729 C 546.4468 682.1966 546.4468 693.8135 553.5706 700.9373 C 557.187 704.5537 561.7902 706.3075 566.5028 706.3075 C 571.2151 706.3075 575.8183 704.554 579.435 700.9373 L 589.7367 690.6353 C 596.8604 683.5113 596.8604 671.8946 589.7367 664.7712 Z M 646.1779 608.2206 C 642.6709 604.7135 637.9583 602.8503 633.2457 602.8503 C 628.5334 602.8503 623.9302 604.6038 620.3134 608.2206 L 610.0118 618.5225 C 602.888 625.6463 602.888 637.2632 610.0118 644.3867 C 613.6282 648.0034 618.2314 649.7572 622.9437 649.7572 C 627.6563 649.7572 632.2595 648.0037 635.8759 644.3867 L 646.1779 634.085 C 653.3011 626.961 653.3011 615.4537 646.1779 608.2206 Z M 700.9744 553.5334 C 697.4674 550.0261 692.7548 548.1629 688.0425 548.1629 C 683.3299 548.1629 678.7267 549.9164 675.1103 553.5334 L 664.8083 563.8351 C 657.6846 570.9589 657.6846 582.5758 664.8083 589.6996 C 668.4248 593.316 673.0279 595.0698 677.7405 595.0698 C 682.4529 595.0698 687.056 593.3163 690.6728 589.6996 L 700.9744 579.3976 C 708.0982 572.1642 708.0982 560.6566 700.9744 553.5334 " fill="#0ea5e9"/>
<path transform="matrix(1,0,0,-1,0,921.5997)" d="M 356.9652 30.1986 C 355.3594 28.6637 353.6422 27.337 351.8011 26.1924 C 349.9645 25.0523 348.0789 24.156 346.1445 23.495 C 344.2144 22.8385 342.2891 22.4345 340.3769 22.2704 L 338.3093 30.2961 C 340.6209 30.4693 342.8969 31.0816 345.1507 32.1197 C 347.3821 33.158 349.3964 34.5376 351.18 36.2458 C 353.2343 38.211 354.5031 40.0878 354.9733 41.8802 C 355.4436 43.6725 355.0708 45.1987 353.8508 46.4766 L 353.8242 46.5032 C 352.8969 47.4704 351.9031 47.9449 350.8339 47.9052 C 349.7825 47.8786 348.66 47.5458 347.4975 46.9023 C 346.3396 46.2591 345.1195 45.4961 343.8641 44.6131 C 342.3645 43.5705 340.816 42.5591 339.1923 41.574 C 337.5686 40.5935 335.8738 39.8883 334.1256 39.471 C 332.3778 39.0495 330.5854 39.1252 328.7398 39.6842 C 326.8942 40.2432 324.9952 41.5341 323.0521 43.5617 L 323.0297 43.5883 C 319.8974 46.8624 318.5487 50.4295 318.9881 54.2761 C 319.4229 58.1315 321.6101 61.9469 325.5497 65.7136 C 327.3599 67.4439 329.4984 68.9034 331.9563 70.0968 C 334.4097 71.2814 336.9872 72.0845 339.6804 72.506 L 342.1159 64.5999 C 339.9599 64.2674 337.9456 63.6684 336.0733 62.8121 C 334.2056 61.9469 332.6261 60.8998 331.3352 59.6622 C 329.3918 57.8032 328.1984 56.0597 327.7414 54.4003 C 327.2978 52.7409 327.6215 51.3434 328.7307 50.19 L 328.7531 50.1678 C 329.7779 49.0941 330.8737 48.5751 332.0317 48.6326 C 333.1984 48.6726 334.4185 49.0541 335.6875 49.7597 C 336.9606 50.4607 338.2872 51.2504 339.6759 52.1464 C 341.1975 53.1357 342.777 54.0587 344.4009 54.9193 C 346.0201 55.7711 347.6928 56.3746 349.401 56.7074 C 351.1091 57.0489 352.8394 56.9248 354.6051 56.3567 C 356.3708 55.7668 358.1589 54.5377 359.9646 52.6479 L 360.0133 52.5991 C 363.1011 49.3736 364.379 45.7977 363.8509 41.889 C 363.3231 37.9848 361.0205 34.0807 356.9652 30.1986 Z M 417.2987 88.5974 L 387.8351 119.3876 L 394.1572 125.4345 L 423.6208 94.6491 Z M 381.9033 107.3066 L 376.0739 113.398 L 400.657 136.9253 L 406.4865 130.8339 Z M 468.741 137.8304 L 449.4728 183.6383 L 453.479 187.4716 L 498.3996 166.2069 L 491.5981 159.6986 L 461.6512 174.9161 L 475.5421 144.339 Z M 469.7524 149.095 L 463.9272 155.1821 L 481.5714 172.0633 L 487.3924 165.9762 Z M 529.7576 222.0681 L 523.9366 228.1552 L 535.6137 239.3266 C 536.5942 240.2714 537.0335 241.3851 536.9315 242.6717 C 536.8294 243.9626 536.226 245.2093 535.108 246.4072 C 533.9721 247.5918 532.7609 248.2617 531.4788 248.4215 C 530.2054 248.5723 529.052 248.1642 528.0627 247.2148 L 516.3854 236.0435 L 510.556 242.1349 L 522.7342 253.7898 C 524.5931 255.5688 526.6208 256.7134 528.8125 257.2058 C 530.9909 257.7118 533.1915 257.5831 535.4008 256.8022 C 537.6146 256.0391 539.6865 254.6416 541.6121 252.6273 C 543.5419 250.6133 544.8285 248.4791 545.5029 246.2298 C 546.1639 243.9805 546.1994 241.7842 545.6137 239.6237 C 545.0148 237.4719 543.7947 235.5021 541.9358 233.7276 Z M 540.1613 206.1717 L 508.0448 239.7348 L 514.3581 245.7774 L 546.4746 212.2143 Z M 557.8722 223.124 L 535.8268 229.8677 L 541.5721 237.3877 L 565.5254 230.4445 Z M 608.5559 271.6206 L 576.4615 305.1612 L 582.7748 311.2038 L 614.8692 277.6632 Z M 611.3642 274.3135 L 605.5435 280.3961 L 625.193 299.1983 L 631.014 293.1157 Z M 684.1998 343.347 C 681.7374 340.9911 679.0978 339.4471 676.2849 338.7152 C 673.4633 337.9742 670.6593 338.0542 667.8643 338.9369 C 665.0649 339.8287 662.487 341.5147 660.1224 343.9857 L 651.0319 353.4891 C 648.6403 355.9867 647.0654 358.6399 646.3114 361.4615 C 645.5571 364.2831 645.6059 367.0826 646.4665 369.8734 C 647.3183 372.6507 648.9822 375.2237 651.4398 377.5796 C 653.9023 379.931 656.5377 381.4705 659.3505 382.2026 C 662.1766 382.9436 664.9804 382.8682 667.7623 381.9898 C 670.5485 381.1113 673.1306 379.421 675.5219 376.9231 L 684.6123 367.42 C 686.9772 364.9487 688.5476 362.3 689.3152 359.4651 C 690.0783 356.639 690.0338 353.8307 689.1687 351.0445 C 688.3126 348.2671 686.6578 345.6984 684.1998 343.347 Z M 678.1482 349.6691 C 679.8696 351.3107 680.7393 353.1739 680.7526 355.2236 C 680.7702 357.2912 679.9275 359.2077 678.2148 361.0001 L 668.8137 370.8227 C 667.11 372.6017 665.2244 373.5425 663.1838 373.6179 C 661.125 373.7021 659.2263 372.9124 657.4961 371.253 C 655.77 369.6026 654.8961 367.7437 654.8916 365.6852 C 654.8649 363.6309 655.7168 361.7011 657.4204 359.922 L 666.8218 350.0949 C 668.5342 348.3071 670.4152 347.3799 672.4783 347.3045 C 674.528 347.2291 676.427 348.0185 678.1482 349.6691 Z M 729.5374 413.25 L 723.7165 419.3371 L 735.3938 430.5084 C 736.3786 431.4532 736.818 432.5669 736.7114 433.8536 C 736.6139 435.1445 736.0058 436.3911 734.8924 437.5891 C 733.7565 438.7737 732.5453 439.4435 731.2589 439.6034 C 729.9856 439.7542 728.8364 439.346 727.8471 438.3967 L 716.1698 427.2253 L 710.3358 433.3167 L 722.5186 444.9716 C 724.3733 446.7506 726.4052 447.8953 728.5969 448.3877 C 730.7708 448.8936 732.9759 448.7649 735.1807 447.984 C 737.3945 447.2209 739.4664 445.8234 741.3965 443.8091 C 743.3218 441.7951 744.6084 439.6609 745.2828 437.4116 C 745.9438 435.1578 745.9838 432.966 745.3939 430.8055 C 744.7992 428.6537 743.5749 426.6839 741.7202 424.9094 Z M 739.9412 397.3535 L 707.8246 430.9163 L 714.1425 436.9592 L 746.259 403.3962 Z M 757.6566 414.3059 L 735.6067 421.0449 L 741.352 428.5695 L 765.3053 421.6263 Z M 811.5168 465.8457 L 805.6916 471.9283 L 813.7485 479.6391 C 815.8204 481.6222 816.9429 483.6631 817.1203 485.7616 C 817.2887 487.8513 816.5123 489.8123 814.7733 491.6313 L 805.3277 501.5027 C 803.5798 503.3305 801.6454 504.1956 799.5557 504.1114 C 797.4618 504.0227 795.3763 502.9801 793.309 501.0012 L 785.2521 493.2904 L 779.4224 499.3863 L 787.333 506.9554 C 791.5433 510.9837 795.8157 513.0468 800.1193 513.1531 C 804.4271 513.2509 808.4024 511.4007 812.058 507.5807 L 821.1487 498.0821 C 823.4246 495.7041 824.9332 493.1354 825.6784 490.3801 C 826.4194 487.6384 826.2995 484.8211 825.3014 481.9374 C 824.3076 479.0534 822.342 476.2052 819.4051 473.3969 Z M 808.3358 462.8024 L 776.2414 496.3431 L 782.5547 502.3857 L 814.6491 468.845 Z M 886.8858 537.306 C 885.2797 535.771 883.5627 534.4489 881.7216 533.2997 C 879.8848 532.1639 877.9992 531.2633 876.0648 530.6023 C 874.135 529.9458 872.2094 529.5419 870.2972 529.3777 L 868.2299 537.4037 C 870.537 537.5767 872.8172 538.1935 875.0667 539.227 C 877.3027 540.2653 879.3125 541.6449 881.1003 543.3531 C 883.1546 545.3186 884.4233 547.1952 884.8936 548.9921 C 885.3639 550.7799 884.9914 552.306 883.7714 553.5839 L 883.7447 553.6106 C 882.8172 554.5777 881.8237 555.0568 880.7545 555.0168 C 879.7028 554.9859 878.5803 554.6531 877.4181 554.01 C 876.2601 553.3665 875.0401 552.6079 873.7843 551.7249 C 872.2848 550.6778 870.7365 549.6664 869.1129 548.6814 C 867.4889 547.7009 865.7898 546.9956 864.0462 546.5829 C 862.2981 546.1571 860.5012 546.2368 858.6556 546.7915 C 856.8145 547.3505 854.9155 548.6414 852.9724 550.6736 L 852.9457 550.6957 C 849.818 553.97 848.4647 557.5368 848.9041 561.3834 C 849.3432 565.2388 851.5304 569.0543 855.4657 572.8209 C 857.2802 574.5557 859.4144 576.0108 861.8766 577.2044 C 864.33 578.389 866.9078 579.1918 869.6007 579.6133 L 872.0365 571.7075 C 869.8802 571.379 867.8662 570.7757 865.9939 569.9194 C 864.1259 569.0543 862.5467 568.0071 861.2555 566.7738 C 859.3123 564.9106 858.119 563.167 857.6617 561.5121 C 857.2181 559.8527 857.5421 558.4552 858.6513 557.2973 L 858.6734 557.2752 C 859.6981 556.2014 860.794 555.6824 861.952 555.7402 C 863.1145 555.7799 864.3345 556.1614 865.6078 556.867 C 866.8811 557.5725 868.2077 558.362 869.5964 559.2538 C 871.1181 560.2433 872.6975 561.166 874.3212 562.0266 C 875.9407 562.883 877.6089 563.4865 879.317 563.8192 C 881.0249 564.1563 882.7597 564.0321 884.5254 563.4643 C 886.2911 562.8787 888.0792 561.6451 889.8849 559.7552 L 889.9336 559.7107 C 893.0217 556.4809 894.2992 552.905 893.7714 548.9966 C 893.2388 545.0922 890.9408 541.188 886.8858 537.306 " fill="#0ea5e9"/>
<path transform="matrix(1,0,0,-1,0,921.5997)" d="M 398.9415 434.9747 C 407.7825 425.0724 408.96 422.7681 418.3603 434.1716 C 429.0936 447.1923 425.4846 460.0627 422.9371 474.1427 C 421.7196 480.871 420.6478 487.5335 419.3079 494.1862 C 418.0255 500.5556 416.103 508.026 422.0308 514.2475 C 434.8661 527.7183 462.5062 504.9391 448.3553 485.9405 C 447.1007 484.2564 444.8917 482.5358 445.6763 480.8988 C 447.0077 478.1205 449.3716 480.5663 450.9377 482.1639 C 460.0386 491.4473 463.8691 492.2657 460.5888 502.1963 C 449.9362 534.4464 399.1161 537.8397 406.1276 493.9591 C 407.4987 485.3792 412.7939 461.8434 412.2286 453.8806 C 411.4763 443.2873 404.1439 439.0977 398.9415 434.9747 " fill="#0ea5e9" fill-rule="evenodd"/>
<path transform="matrix(1,0,0,-1,0,921.5997)" d="M 367.3491 453.2647 C 369.3348 450.0833 377.4821 443.2728 380.8111 439.7916 C 385.3913 435.0022 389.9169 430.2281 394.4721 425.4364 C 398.0171 421.7071 403.8046 414.3886 408.2998 414.7722 C 410.6038 414.9689 421.3791 419.781 422.2134 422.0802 C 422.2406 422.5839 421.8333 424.3187 419.0374 423.3285 C 417.2888 422.7092 417.0115 422.5181 415.3595 422.2023 C 413.212 421.7922 410.1735 421.5322 408.0146 422.1286 C 403.7193 423.3152 396.7517 431.5158 393.0596 435.306 C 382.5856 446.0584 390.8157 448.2859 407.3859 465.3224 C 406.3527 468.4961 406.1435 475.1535 404.8362 477.7985 C 398.5004 471.7854 392.2838 465.4763 386.0493 459.3407 C 383.561 456.8919 379.499 452.0086 376.5626 451.7671 C 371.4622 451.3482 370.205 458.2227 367.3491 453.2647 " fill="#0ea5e9" fill-rule="evenodd"/>
<path transform="matrix(1,0,0,-1,0,921.5997)" d="M 366.7411 438.5205 C 351.0703 454.4337 353.5784 479.7142 368.4937 489.0348 C 373.0833 491.9031 383.2849 492.5662 378.3382 495.2305 C 374.7183 497.1801 354.2462 491.9482 350.3957 467.3829 C 345.4869 436.0671 376.5175 417.4112 393.042 421.2743 C 390.8509 423.5632 388.6464 425.8539 386.4847 428.1695 C 382.9085 432.0003 383.7711 431.2536 379.7379 431.7999 C 375.438 432.3821 370.7498 434.45 366.7411 438.5205 " fill="#0ea5e9" fill-rule="evenodd"/>
<path transform="matrix(1,0,0,-1,0,921.5997)" d="M 427.8705 513.2948 C 424.849 509.548 430.6249 509.6299 430.1218 504.4433 C 429.8445 501.5883 425.4208 498.1073 423.0496 495.7424 C 423.508 492.7737 424.3989 485.8123 425.4574 483.0919 C 431.7075 489.0753 436.7665 496.9494 441.9598 494.6647 C 444.8503 493.3928 444.9753 491.0882 447.7207 492.1795 C 449.3296 497.2416 432.7047 511.7888 427.8705 513.2948 " fill="#0ea5e9" fill-rule="evenodd"/>
</g>
</g>
</svg>
