<?xml version="1.0" encoding="utf-8"?>
<!-- Generator: Adobe Illustrator 25.2.0, SVG Export Plug-In . SVG Version: 6.00 Build 0)  -->
<svg version="1.1" id="Layer_1" xmlns="http://www.w3.org/2000/svg" xmlns:xlink="http://www.w3.org/1999/xlink" x="0px" y="0px"
	 width="1000px" height="1000px" viewBox="0 0 1000 1000" style="enable-background:new 0 0 1000 1000;" xml:space="preserve">
<style type="text/css">
	.st0{fill:#0EA5E9;}
</style>
<path class="st0" d="M886,335.7l-29.4-29.4c-40.5,40.5-106.2,40.5-146.8,0c-40.5-40.5-40.5-106.2,0-146.8l-29.4-29.4
	c-17.9-17.9-46.9-17.9-64.8,0l-64.4,64.4c1.6,0.8,3.1,1.8,4.5,3.2l9.4,9.4c6.5,6.5,6.5,17.1,0,23.6c-3.3,3.2-7.5,4.9-11.8,4.9
	s-8.5-1.6-11.8-4.9l-9.4-9.4c-1.3-1.3-2.4-2.8-3.2-4.4L165.7,580.2c-17.9,17.9-17.9,46.9,0,64.8l29.4,29.4
	c40.5-40.5,106.2-40.5,146.8,0c40.5,40.5,40.5,106.2,0,146.8l29.4,29.4c17.9,17.9,46.9,17.9,64.8,0l363.3-363.3
	c-1.6-0.8-3.1-1.8-4.5-3.2l-9.4-9.4c-6.5-6.5-6.5-17.1,0-23.6c3.3-3.3,7.5-4.9,11.8-4.9s8.5,1.6,11.8,4.9l9.4,9.4
	c1.3,1.3,2.4,2.8,3.2,4.5l64.4-64.4C903.9,382.7,903.9,353.6,886,335.7z M581.5,247.1c3.3-3.3,7.5-4.9,11.8-4.9s8.5,1.6,11.8,4.9
	l9.4,9.4c6.5,6.5,6.5,17.1,0,23.6c-3.2,3.2-7.5,4.9-11.8,4.9s-8.5-1.6-11.8-4.9l-9.4-9.4C575,264.2,575,253.6,581.5,247.1z
	 M634.2,505.4l-78,35.1c-1.6,0.7-2.7,2.4-2.7,4.2l0.8,85.5c0,4.2-5.1,6.1-7.8,3.1L489,569.9c-1.2-1.3-3.1-1.8-4.8-1.2l-81.1,27.2
	c-3.9,1.3-7.4-2.9-5.3-6.5l42.5-74.3c0.9-1.5,0.8-3.5-0.3-4.9l-51-68.7c-2.5-3.3,0.5-7.9,4.5-7.1l83.8,17.4c1.8,0.4,3.6-0.3,4.6-1.8
	l49.6-69.7c2.4-3.4,7.7-2,8.2,2.1l9.3,85.1c0.2,1.8,1.4,3.3,3.1,3.8l81.6,25.7C637.7,498.2,638,503.7,634.2,505.4z M665.1,330.7
	c-3.2,3.3-7.5,4.9-11.8,4.9s-8.5-1.6-11.8-4.9l-9.4-9.4c-6.5-6.5-6.5-17.1,0-23.6c3.3-3.3,7.5-4.9,11.8-4.9s8.5,1.6,11.8,4.9
	l9.4,9.4C671.6,313.6,671.6,324.2,665.1,330.7z M716.6,382.3c-3.2,3.2-7.5,4.9-11.8,4.9s-8.5-1.6-11.8-4.9l-9.4-9.4
	c-6.5-6.5-6.5-17.1,0-23.6c3.3-3.3,7.5-4.9,11.8-4.9s8.5,1.6,11.8,4.9l9.4,9.4C723.1,365.2,723.1,375.7,716.6,382.3z M766.6,432.2
	c-3.2,3.2-7.5,4.9-11.8,4.9s-8.5-1.6-11.8-4.9l-9.4-9.4c-6.5-6.5-6.5-17.1,0-23.6c3.3-3.3,7.5-4.9,11.8-4.9s8.5,1.6,11.8,4.9
	l9.4,9.4C773.1,415.2,773.1,425.7,766.6,432.2z"/>
</svg>
