<?xml version="1.0" encoding="UTF-8" standalone="no"?>
<!DOCTYPE svg PUBLIC "-//W3C//DTD SVG 1.1//EN" "http://www.w3.org/Graphics/SVG/1.1/DTD/svg11.dtd">
<svg xmlns="http://www.w3.org/2000/svg" xmlns:xlink="http://www.w3.org/1999/xlink" version="1.1" width="71.2797pt" height="71.2797pt" viewBox="0 0 71.2797 71.2797">
<g enable-background="new">
<g id="Layer-1" data-name="Layer 1">
<path transform="matrix(1,0,0,-1,0,71.2797)" d="M 59.2126 48.2017 L 57.1538 50.2605 C 54.318 47.4245 49.7174 47.4245 46.8746 50.2605 C 44.0388 53.0963 44.0388 57.6969 46.8746 60.5398 L 44.816 62.5983 C 43.5626 63.8518 41.5318 63.8518 40.2786 62.5983 L 35.769 58.089 C 35.8812 58.0329 35.9861 57.9628 36.0842 57.8648 L 36.7424 57.2066 C 37.1976 56.7516 37.1976 56.0092 36.7424 55.554 C 36.5114 55.33 36.2171 55.211 35.9161 55.211 C 35.6151 55.211 35.3208 55.3229 35.0898 55.554 L 34.4316 56.2124 C 34.3406 56.3034 34.2635 56.4083 34.2077 56.5203 L 8.7755 31.0813 C 7.5223 29.8281 7.5223 27.7974 8.7755 26.5439 L 10.8343 24.4854 C 13.6701 27.3212 18.2707 27.3212 21.1136 24.4854 C 23.9494 21.6493 23.9494 17.049 21.1136 14.2061 L 23.1721 12.1473 C 24.4256 10.8941 26.4563 10.8941 27.7095 12.1473 L 53.1485 37.5866 C 53.0365 37.6424 52.9316 37.7124 52.8335 37.8105 L 52.1753 38.4687 C 51.7201 38.9239 51.7201 39.666 52.1753 40.1213 C 52.4064 40.3523 52.7003 40.4643 53.0016 40.4643 C 53.3027 40.4643 53.5966 40.3523 53.8279 40.1213 L 54.4861 39.4631 C 54.5771 39.3721 54.654 39.2669 54.7101 39.1479 L 59.2194 43.6572 C 60.4658 44.9107 60.4658 46.9485 59.2126 48.2017 Z M 37.8907 54.4056 C 38.1217 54.6369 38.416 54.7489 38.717 54.7489 C 39.018 54.7489 39.3123 54.6369 39.5433 54.4056 L 40.2015 53.7474 C 40.6568 53.2925 40.6568 52.5501 40.2015 52.0951 C 39.9773 51.8709 39.6763 51.7518 39.3752 51.7518 C 39.0742 51.7518 38.7799 51.8638 38.5489 52.0951 L 37.8907 52.7533 C 37.4357 53.2083 37.4357 53.9507 37.8907 54.4056 Z M 41.5809 36.3189 L 36.1193 33.8613 C 36.0071 33.8122 35.9303 33.6932 35.9303 33.567 L 35.9861 27.5803 C 35.9861 27.286 35.6289 27.1531 35.4399 27.3631 L 31.4138 31.8027 C 31.3296 31.8937 31.1967 31.9286 31.0776 31.8866 L 25.3987 29.982 C 25.1257 29.8911 24.8805 30.185 25.0277 30.4373 L 28.0037 35.6397 C 28.0667 35.7449 28.0596 35.8849 27.9825 35.983 L 24.4114 40.7934 C 24.2365 41.0244 24.4466 41.3467 24.7266 41.2906 L 30.5943 40.0723 C 30.7205 40.0442 30.8466 40.0932 30.9166 40.1981 L 34.3896 45.0788 C 34.5577 45.3169 34.9288 45.2188 34.9639 44.9317 L 35.6151 38.973 C 35.6289 38.8468 35.7131 38.742 35.8322 38.7068 L 41.546 36.9074 C 41.826 36.8232 41.847 36.438 41.5809 36.3189 Z M 43.7445 48.5518 C 43.5206 48.3208 43.2196 48.2088 42.9182 48.2088 C 42.6172 48.2088 42.3232 48.3208 42.0919 48.5518 L 41.4337 49.21 C 40.9788 49.6653 40.9788 50.4074 41.4337 50.8626 C 41.665 51.0936 41.959 51.2059 42.26 51.2059 C 42.5614 51.2059 42.8553 51.0936 43.0863 50.8626 L 43.7445 50.2044 C 44.1998 49.7492 44.1998 49.0071 43.7445 48.5518 Z M 47.3508 44.9388 C 47.1266 44.7148 46.8255 44.5958 46.5245 44.5958 C 46.2234 44.5958 45.9292 44.7077 45.6982 44.9388 L 45.04 45.597 C 44.5847 46.0522 44.5847 46.7943 45.04 47.2496 C 45.271 47.4806 45.5652 47.5926 45.8663 47.5926 C 46.1673 47.5926 46.4615 47.4806 46.6926 47.2496 L 47.3508 46.5914 C 47.8057 46.1361 47.8057 45.4008 47.3508 44.9388 Z M 50.8518 41.4448 C 50.6276 41.2206 50.3266 41.1015 50.0255 41.1015 C 49.7245 41.1015 49.4303 41.2135 49.1992 41.4448 L 48.541 42.103 C 48.0861 42.558 48.0861 43.3003 48.541 43.7553 C 48.7721 43.9866 49.0663 44.0986 49.3673 44.0986 C 49.6684 44.0986 49.9626 43.9866 50.1936 43.7553 L 50.8518 43.0971 C 51.3071 42.6351 51.3071 41.8997 50.8518 41.4448 " fill="#0ea5e9"/>
<path transform="matrix(1,0,0,-1,0,71.2797)" d="M 28.8723 8.0076 C 28.7697 7.9095 28.66 7.8248 28.5423 7.7516 C 28.425 7.6788 28.3045 7.6215 28.1809 7.5793 C 28.0576 7.5373 27.9346 7.5115 27.8124 7.501 L 27.6803 8.0138 C 27.828 8.0249 27.9734 8.064 28.1174 8.1303 C 28.26 8.1967 28.3887 8.2848 28.5026 8.394 C 28.6339 8.5195 28.715 8.6394 28.745 8.754 C 28.7751 8.8685 28.7512 8.966 28.6733 9.0476 L 28.6716 9.0493 C 28.6123 9.1111 28.5489 9.1414 28.4805 9.1389 C 28.4134 9.1372 28.3416 9.1159 28.2674 9.0748 C 28.1934 9.0337 28.1154 8.985 28.0352 8.9286 C 27.9394 8.862 27.8405 8.7973 27.7367 8.7344 C 27.633 8.6717 27.5247 8.6267 27.413 8.6 C 27.3013 8.5731 27.1868 8.5779 27.0689 8.6136 C 26.951 8.6494 26.8296 8.7318 26.7055 8.8614 L 26.7041 8.8631 C 26.5039 9.0723 26.4178 9.3002 26.4458 9.546 C 26.4736 9.7923 26.6134 10.0361 26.8651 10.2767 C 26.9807 10.3873 27.1174 10.4805 27.2744 10.5568 C 27.4311 10.6325 27.5958 10.6838 27.7679 10.7107 L 27.9235 10.2056 C 27.7858 10.1843 27.6571 10.146 27.5374 10.0913 C 27.4181 10.0361 27.3172 9.9692 27.2347 9.8901 C 27.1106 9.7713 27.0343 9.6599 27.0051 9.5539 C 26.9768 9.4479 26.9974 9.3586 27.0683 9.2849 L 27.0697 9.2835 C 27.1352 9.2149 27.2052 9.1817 27.2792 9.1854 C 27.3538 9.1879 27.4317 9.2123 27.5128 9.2574 C 27.5941 9.3022 27.6789 9.3526 27.7676 9.4099 C 27.8649 9.4731 27.9658 9.5321 28.0695 9.5871 C 28.173 9.6415 28.2798 9.68 28.389 9.7013 C 28.4981 9.7231 28.6087 9.7152 28.7215 9.6789 C 28.8343 9.6412 28.9485 9.5627 29.0639 9.4419 L 29.067 9.4388 C 29.2643 9.2327 29.346 9.0043 29.3122 8.7545 C 29.2785 8.5051 29.1314 8.2556 28.8723 8.0076 Z M 32.7271 11.7388 L 30.8446 13.7061 L 31.2486 14.0924 L 33.1311 12.1255 Z M 30.4656 12.9342 L 30.0932 13.3234 L 31.6638 14.8266 L 32.0363 14.4374 Z M 36.0139 14.8844 L 34.7828 17.8112 L 35.0388 18.0561 L 37.9089 16.6975 L 37.4743 16.2816 L 35.5609 17.2539 L 36.4484 15.3003 Z M 36.0785 15.6042 L 35.7063 15.9931 L 36.8337 17.0717 L 37.2056 16.6827 Z M 39.9124 20.2666 L 39.5405 20.6555 L 40.2866 21.3693 C 40.3492 21.4296 40.3773 21.5008 40.3707 21.583 C 40.3642 21.6655 40.3257 21.7451 40.2542 21.8217 C 40.1817 21.8974 40.1043 21.9402 40.0224 21.9504 C 39.941 21.96 39.8673 21.9339 39.8041 21.8733 L 39.058 21.1595 L 38.6855 21.5487 L 39.4637 22.2934 C 39.5824 22.407 39.712 22.4802 39.852 22.5116 C 39.9912 22.5439 40.1318 22.5357 40.2729 22.4858 C 40.4144 22.4371 40.5468 22.3478 40.6698 22.2191 C 40.7931 22.0904 40.8753 21.954 40.9184 21.8103 C 40.9606 21.6666 40.9629 21.5263 40.9255 21.3883 C 40.8872 21.2508 40.8093 21.1249 40.6905 21.0115 Z M 40.5771 19.2509 L 38.5251 21.3953 L 38.9285 21.7814 L 40.9805 19.637 Z M 41.7087 20.334 L 40.3002 20.7649 L 40.6672 21.2454 L 42.1977 20.8018 Z M 44.947 23.4326 L 42.8964 25.5756 L 43.2998 25.9617 L 45.3504 23.8187 Z M 45.1264 23.6047 L 44.7545 23.9933 L 46.01 25.1946 L 46.3819 24.806 Z M 49.7801 28.0154 C 49.6227 27.8649 49.4541 27.7662 49.2744 27.7194 C 49.0941 27.6721 48.9149 27.6772 48.7363 27.7336 C 48.5575 27.7906 48.3928 27.8983 48.2417 28.0562 L 47.6609 28.6634 C 47.5081 28.823 47.4075 28.9925 47.3593 29.1728 C 47.3111 29.353 47.3142 29.5319 47.3692 29.7102 C 47.4236 29.8877 47.5299 30.0521 47.687 30.2026 C 47.8443 30.3528 48.0127 30.4512 48.1924 30.498 C 48.3729 30.5453 48.5521 30.5405 48.7298 30.4843 C 48.9078 30.4282 49.0728 30.3202 49.2256 30.1606 L 49.8064 29.5534 C 49.9575 29.3956 50.0579 29.2263 50.1069 29.0452 C 50.1557 28.8646 50.1528 28.6852 50.0975 28.5072 C 50.0428 28.3297 49.9371 28.1656 49.7801 28.0154 Z M 49.3934 28.4193 C 49.5034 28.5242 49.559 28.6432 49.5598 28.7742 C 49.5609 28.9063 49.5071 29.0288 49.3977 29.1433 L 48.797 29.7709 C 48.6882 29.8845 48.5677 29.9446 48.4373 29.9494 C 48.3058 29.9548 48.1844 29.9044 48.0739 29.7984 C 47.9636 29.6929 47.9078 29.5741 47.9075 29.4426 C 47.9058 29.3114 47.9602 29.1881 48.0691 29.0744 L 48.6697 28.4465 C 48.7791 28.3323 48.8993 28.273 49.0311 28.2682 C 49.1621 28.2634 49.2834 28.3139 49.3934 28.4193 Z M 52.6768 32.4816 L 52.3049 32.8706 L 53.051 33.5843 C 53.1139 33.6447 53.142 33.7158 53.1351 33.798 C 53.1289 33.8805 53.0901 33.9602 53.0189 34.0367 C 52.9464 34.1124 52.869 34.1552 52.7868 34.1654 C 52.7054 34.1751 52.632 34.149 52.5688 34.0883 L 51.8227 33.3746 L 51.45 33.7637 L 52.2283 34.5084 C 52.3468 34.6221 52.4767 34.6952 52.6167 34.7267 C 52.7556 34.759 52.8965 34.7508 53.0374 34.7009 C 53.1788 34.6521 53.3112 34.5628 53.4345 34.4341 C 53.5575 34.3054 53.6397 34.1691 53.6828 34.0254 C 53.725 33.8814 53.7276 33.7414 53.6899 33.6033 C 53.6519 33.4658 53.5737 33.34 53.4552 33.2266 Z M 53.3415 31.466 L 51.2895 33.6104 L 51.6932 33.9965 L 53.7452 31.8521 Z M 54.4734 32.5491 L 53.0646 32.9797 L 53.4317 33.4604 L 54.9621 33.0168 Z M 57.9146 35.8421 L 57.5425 36.2307 L 58.0572 36.7234 C 58.1896 36.8501 58.2613 36.9805 58.2727 37.1146 C 58.2834 37.2481 58.2338 37.3734 58.1227 37.4896 L 57.5192 38.1203 C 57.4075 38.2371 57.2839 38.2924 57.1504 38.287 C 57.0166 38.2813 56.8834 38.2147 56.7513 38.0883 L 56.2365 37.5956 L 55.8641 37.9851 L 56.3695 38.4687 C 56.6385 38.7261 56.9115 38.8579 57.1864 38.8647 C 57.4617 38.8709 57.7157 38.7527 57.9492 38.5087 L 58.53 37.9018 C 58.6755 37.7498 58.7718 37.5857 58.8195 37.4097 C 58.8668 37.2345 58.8591 37.0545 58.7954 36.8702 C 58.7319 36.686 58.6063 36.504 58.4186 36.3246 Z M 57.7114 35.6477 L 55.6608 37.7906 L 56.0642 38.1767 L 58.1148 36.0337 Z M 62.7301 40.4079 C 62.6275 40.3098 62.5178 40.2253 62.4002 40.1519 C 62.2828 40.0793 62.1624 40.0218 62.0388 39.9796 C 61.9155 39.9376 61.7924 39.9118 61.6703 39.9013 L 61.5382 40.4141 C 61.6856 40.4252 61.8313 40.4646 61.975 40.5306 C 62.1179 40.5969 62.2463 40.6851 62.3605 40.7942 C 62.4917 40.9198 62.5728 41.0397 62.6029 41.1545 C 62.6329 41.2688 62.6091 41.3663 62.5311 41.4479 L 62.5294 41.4496 C 62.4702 41.5114 62.4067 41.542 62.3384 41.5395 C 62.2712 41.5375 62.1995 41.5162 62.1252 41.4751 C 62.0512 41.434 61.9733 41.3855 61.8931 41.3291 C 61.7973 41.2622 61.6983 41.1976 61.5946 41.1347 C 61.4908 41.072 61.3823 41.027 61.2709 41.0006 C 61.1592 40.9734 61.0444 40.9785 60.9265 41.0139 C 60.8088 41.0496 60.6875 41.1321 60.5633 41.262 L 60.5616 41.2634 C 60.3618 41.4726 60.2753 41.7005 60.3034 41.9462 C 60.3315 42.1926 60.4712 42.4363 60.7226 42.677 C 60.8386 42.7878 60.9749 42.8808 61.1323 42.9571 C 61.289 43.0328 61.4537 43.0841 61.6258 43.111 L 61.7814 42.6059 C 61.6436 42.5849 61.5149 42.5463 61.3953 42.4916 C 61.276 42.4363 61.1751 42.3694 61.0926 42.2906 C 60.9684 42.1716 60.8922 42.0602 60.863 41.9545 C 60.8346 41.8484 60.8553 41.7591 60.9262 41.6852 L 60.9276 41.6837 C 60.9931 41.6151 61.0631 41.582 61.1371 41.5857 C 61.2113 41.5882 61.2893 41.6126 61.3706 41.6577 C 61.452 41.7027 61.5368 41.7532 61.6255 41.8102 C 61.7227 41.8734 61.8236 41.9323 61.9274 41.9873 C 62.0308 42.042 62.1374 42.0806 62.2466 42.1019 C 62.3557 42.1234 62.4665 42.1155 62.5793 42.0792 C 62.6922 42.0418 62.8064 41.963 62.9218 41.8422 L 62.9249 41.8394 C 63.1222 41.633 63.2038 41.4045 63.1701 41.1548 C 63.1361 40.9054 62.9892 40.6559 62.7301 40.4079 " fill="#0ea5e9"/>
<path transform="matrix(1,0,0,-1,0,71.2797)" d="M 31.5541 33.8698 C 32.1191 33.2371 32.1945 33.0897 32.7949 33.8185 C 33.4809 34.6504 33.2501 35.4728 33.0874 36.3722 C 33.0094 36.8022 32.9411 37.2277 32.8555 37.6529 C 32.7736 38.0599 32.6506 38.537 33.0296 38.9347 C 33.8496 39.7953 35.6156 38.34 34.7114 37.1259 C 34.6311 37.0185 34.49 36.9085 34.5402 36.8039 C 34.6252 36.6265 34.7763 36.7826 34.8763 36.8847 C 35.458 37.478 35.7026 37.5301 35.4932 38.1645 C 34.8123 40.225 31.5655 40.4419 32.0134 37.6384 C 32.1009 37.0902 32.4394 35.5864 32.4031 35.0776 C 32.3552 34.4007 31.8866 34.1331 31.5541 33.8698 " fill="#0ea5e9" fill-rule="evenodd"/>
<path transform="matrix(1,0,0,-1,0,71.2797)" d="M 29.5356 35.0382 C 29.6626 34.835 30.183 34.3998 30.3959 34.1773 C 30.6884 33.8715 30.9776 33.5665 31.2687 33.2603 C 31.4952 33.0219 31.8648 32.5545 32.1523 32.5789 C 32.2994 32.5913 32.9879 32.8989 33.0412 33.0457 C 33.0429 33.078 33.0168 33.1889 32.8382 33.1257 C 32.7266 33.086 32.7087 33.0738 32.6032 33.0537 C 32.466 33.0273 32.2719 33.0109 32.1338 33.0489 C 31.8594 33.1248 31.4144 33.6487 31.1786 33.8907 C 30.5093 34.5779 31.0351 34.7202 32.0939 35.8087 C 32.0278 36.0113 32.0145 36.4368 31.9309 36.6058 C 31.5261 36.2217 31.1289 35.8186 30.7304 35.4266 C 30.5717 35.2701 30.312 34.958 30.1243 34.9427 C 29.7986 34.9157 29.7181 35.3551 29.5356 35.0382 " fill="#0ea5e9" fill-rule="evenodd"/>
<path transform="matrix(1,0,0,-1,0,71.2797)" d="M 29.4968 34.0963 C 28.4956 35.113 28.656 36.7282 29.6087 37.3238 C 29.9021 37.5069 30.5538 37.5494 30.2377 37.7195 C 30.0064 37.8442 28.6985 37.5097 28.4525 35.9402 C 28.139 33.9395 30.1215 32.7475 31.1774 32.9944 C 31.0374 33.1407 30.8965 33.287 30.7585 33.4349 C 30.53 33.6796 30.585 33.6319 30.3273 33.6668 C 30.0526 33.7039 29.753 33.836 29.4968 34.0963 " fill="#0ea5e9" fill-rule="evenodd"/>
<path transform="matrix(1,0,0,-1,0,71.2797)" d="M 33.4026 38.8738 C 33.2096 38.6342 33.5786 38.6396 33.5463 38.3083 C 33.5288 38.1257 33.2461 37.9035 33.0945 37.7524 C 33.124 37.5627 33.1807 37.1177 33.2484 36.9439 C 33.6478 37.3263 33.971 37.8295 34.3029 37.6835 C 34.4874 37.6021 34.4954 37.455 34.6708 37.5248 C 34.7737 37.8482 33.7116 38.7774 33.4026 38.8738 " fill="#0ea5e9" fill-rule="evenodd"/>
</g>
</g>
</svg>
